<?xml version="1.0" standalone="no"?>
<!DOCTYPE svg PUBLIC "-//W3C//DTD SVG 1.1//EN" "http://www.w3.org/Graphics/SVG/1.1/DTD/svg11.dtd">
<svg xmlns="http://www.w3.org/2000/svg" xmlns:xlink="http://www.w3.org/1999/xlink" viewBox="164.4563 122.5172 171.0874 142.2133" width="171.08740234375" height="142.2133026123047" preserveAspectRatio="none"><defs/><style>.aLgOaV3zRcolors-3ikesIpYeQ {fill:#374B73;fill-opacity:1;}.aLgOaV3zRcolors-4ikesIpYeQ {fill:#5973A8;fill-opacity:1;}.aLgOaV3zRcolors-5ikesIpYeQ {fill:#FFB59D;fill-opacity:1;}.aLgOaV3zRcolors-6ikesIpYeQ {fill:#F9507A;fill-opacity:1;}.aLgOaV3zRcolors-7ikesIpYeQ {fill:#FFD1DC;fill-opacity:1;}.icon1ikesIpYeQ {fill:#FF8197;fill-opacity:1;}.icon2ikesIpYeQ {fill:#FFD0A5;fill-opacity:1;}.icon3ikesIpYeQ {fill:#FF9A9A;fill-opacity:1;}</style><g opacity="1" transform="rotate(0 164.4563 122.5172)"> <svg width="171.0874" height="142.2133" x="164.4563" y="122.5172" version="1.1" preserveAspectRatio="none" viewBox="19.99999237060547 33.50200271606445 160.00100708007812 132.9980010986328"> <g transform="matrix(1 0 0 1 0 0)"><g><path d="M44.121 77.627h-4.752a2.924 2.924 0 0 1-2.912-2.93v-4.782a2.924 2.924 0 0 1 2.912-2.93h4.752a2.924 2.924 0 0 1 2.912 2.93v4.782c0 1.615-1.306 2.93-2.912 2.93zm-4.459-3.225h4.166V70.21h-4.166v4.192z" data-color="1" class="icon1ikesIpYeQ"/><path d="M58.685 77.627h-4.752a2.924 2.924 0 0 1-2.912-2.93v-4.782a2.924 2.924 0 0 1 2.912-2.93h4.752a2.924 2.924 0 0 1 2.912 2.93v4.782c-.001 1.615-1.306 2.93-2.912 2.93zm-4.459-3.225h4.166V70.21h-4.166v4.192z" data-color="1" class="icon1ikesIpYeQ"/><path d="M73.248 77.627h-4.752a2.924 2.924 0 0 1-2.912-2.93v-4.782a2.924 2.924 0 0 1 2.912-2.93h4.752a2.924 2.924 0 0 1 2.912 2.93v4.782c0 1.615-1.306 2.93-2.912 2.93zm-4.459-3.225h4.166V70.21h-4.166v4.192z" data-color="1" class="icon1ikesIpYeQ"/><path d="M87.812 77.627H83.06a2.924 2.924 0 0 1-2.912-2.93v-4.782a2.925 2.925 0 0 1 2.913-2.93h4.751a2.924 2.924 0 0 1 2.912 2.93v4.782c-.001 1.615-1.306 2.93-2.912 2.93zm-4.459-3.225h4.166V70.21h-4.166v4.192z" data-color="1" class="icon1ikesIpYeQ"/><path d="M102.377 77.627h-4.752a2.924 2.924 0 0 1-2.912-2.93v-4.782a2.924 2.924 0 0 1 2.912-2.93h4.752a2.924 2.924 0 0 1 2.912 2.93v4.782c-.001 1.615-1.306 2.93-2.912 2.93zm-4.459-3.225h4.166V70.21h-4.166v4.192z" data-color="1" class="icon1ikesIpYeQ"/><path d="M116.94 77.627h-4.752a2.924 2.924 0 0 1-2.912-2.93v-4.782a2.924 2.924 0 0 1 2.912-2.93h4.752a2.924 2.924 0 0 1 2.912 2.93v4.782c0 1.615-1.306 2.93-2.912 2.93zm-4.459-3.225h4.166V70.21h-4.166v4.192z" data-color="1" class="icon1ikesIpYeQ"/><path d="M131.504 77.627h-4.752a2.924 2.924 0 0 1-2.912-2.93v-4.782a2.924 2.924 0 0 1 2.912-2.93h4.752a2.924 2.924 0 0 1 2.912 2.93v4.782c-.001 1.615-1.306 2.93-2.912 2.93zm-4.459-3.225h4.166V70.21h-4.166v4.192z" data-color="1" class="icon1ikesIpYeQ"/><path d="M73.226 92.497h-4.752c-1.606 0-2.912-1.314-2.912-2.931v-4.782a2.924 2.924 0 0 1 2.912-2.93h4.752a2.924 2.924 0 0 1 2.912 2.93v4.782c-.001 1.617-1.306 2.931-2.912 2.931zm-4.459-3.225h4.166v-4.193h-4.166v4.193z" data-color="1" class="icon1ikesIpYeQ"/><path d="M87.789 92.497h-4.752c-1.606 0-2.912-1.314-2.912-2.931v-4.782a2.924 2.924 0 0 1 2.912-2.93h4.752a2.924 2.924 0 0 1 2.912 2.93v4.782c0 1.617-1.306 2.931-2.912 2.931zm-4.459-3.225h4.166v-4.193H83.33v4.193z" data-color="1" class="icon1ikesIpYeQ"/><path d="M102.353 92.497h-4.752c-1.606 0-2.912-1.314-2.912-2.931v-4.782a2.924 2.924 0 0 1 2.912-2.93h4.752a2.925 2.925 0 0 1 2.913 2.93v4.782a2.925 2.925 0 0 1-2.913 2.931zm-4.459-3.225h4.167v-4.193h-4.167v4.193z" data-color="1" class="icon1ikesIpYeQ"/><path d="M116.918 92.497h-4.752c-1.606 0-2.912-1.314-2.912-2.931v-4.782a2.924 2.924 0 0 1 2.912-2.93h4.752a2.924 2.924 0 0 1 2.912 2.93v4.782c-.001 1.617-1.306 2.931-2.912 2.931zm-4.459-3.225h4.166v-4.193h-4.166v4.193z" data-color="1" class="icon1ikesIpYeQ"/><path d="M131.481 92.497h-4.752c-1.606 0-2.912-1.314-2.912-2.931v-4.782a2.924 2.924 0 0 1 2.912-2.93h4.752a2.924 2.924 0 0 1 2.912 2.93v4.782c0 1.617-1.306 2.931-2.912 2.931zm-4.459-3.225h4.166v-4.193h-4.166v4.193z" data-color="1" class="icon1ikesIpYeQ"/><path d="M87.767 107.367h-4.752a2.924 2.924 0 0 1-2.912-2.93v-4.782a2.924 2.924 0 0 1 2.912-2.93h4.752a2.924 2.924 0 0 1 2.912 2.93v4.782c-.001 1.615-1.306 2.93-2.912 2.93zm-4.459-3.225h4.166V99.95h-4.166v4.192z" data-color="1" class="icon1ikesIpYeQ"/><path d="M102.33 107.367h-4.752a2.924 2.924 0 0 1-2.912-2.93v-4.782a2.924 2.924 0 0 1 2.912-2.93h4.752a2.924 2.924 0 0 1 2.912 2.93v4.782c0 1.615-1.306 2.93-2.912 2.93zm-4.459-3.225h4.166V99.95h-4.166v4.192z" data-color="1" class="icon1ikesIpYeQ"/><path d="M116.894 107.367h-4.752a2.924 2.924 0 0 1-2.912-2.93v-4.782a2.925 2.925 0 0 1 2.913-2.93h4.751a2.924 2.924 0 0 1 2.912 2.93v4.782c0 1.615-1.306 2.93-2.912 2.93zm-4.459-3.225h4.166V99.95h-4.166v4.192z" data-color="1" class="icon1ikesIpYeQ"/><path d="M146.068 77.627h-4.752a2.924 2.924 0 0 1-2.912-2.93v-4.782a2.924 2.924 0 0 1 2.912-2.93h4.752a2.924 2.924 0 0 1 2.912 2.93v4.782c0 1.615-1.305 2.93-2.912 2.93zm-4.458-3.225h4.166V70.21h-4.166v4.192z" data-color="1" class="icon1ikesIpYeQ"/><path d="M160.632 77.627h-4.752a2.924 2.924 0 0 1-2.912-2.93v-4.782a2.924 2.924 0 0 1 2.912-2.93h4.752a2.924 2.924 0 0 1 2.912 2.93v4.782c0 1.615-1.306 2.93-2.912 2.93zm-4.459-3.225h4.166V70.21h-4.166v4.192z" data-color="1" class="icon1ikesIpYeQ"/><path d="M153.261 111.414a1.607 1.607 0 0 1-1.602-1.612V97.421h5.792c3.193 0 5.791 2.614 5.791 5.829 0 .891-.717 1.612-1.602 1.612a1.607 1.607 0 0 1-1.602-1.612 2.598 2.598 0 0 0-2.586-2.604h-2.587v9.156a1.61 1.61 0 0 1-1.604 1.612z" data-color="1" class="icon1ikesIpYeQ"/><path d="M173.249 147.858h-17.996c-.885 0-1.602-.722-1.602-1.612s.717-1.612 1.602-1.612h16.715c.199-.825.504-1.978.92-3.276 2.37-7.408 3.674-15.168 3.878-23.065.024-.891.807-1.623 1.644-1.57a1.608 1.608 0 0 1 1.561 1.654 85.978 85.978 0 0 1-4.033 23.969c-.745 2.329-1.113 4.193-1.117 4.211l-.254 1.301h-1.318z" data-color="1" class="icon1ikesIpYeQ"/><path d="M146.37 147.857c-.764 0-1.44-.55-1.577-1.332-.013-.074-1.361-7.481-6.128-12.842-1.331-1.497-2.592-3.244-3.75-5.191-2.7-4.542-4.127-9.804-4.127-15.216 0-3.645 2.947-6.61 6.568-6.61 2.524 0 4.841 1.488 5.924 3.752V87.834c0-3.213 2.599-5.828 5.792-5.828s5.792 2.614 5.792 5.828v11.2c0 .891-.717 1.612-1.602 1.612s-1.602-.722-1.602-1.612v-11.2c0-1.435-1.16-2.603-2.587-2.603s-2.587 1.168-2.587 2.603v39.9l-5.987-15.672a3.385 3.385 0 0 0-3.141-2.171c-1.855 0-3.364 1.519-3.364 3.385 0 4.83 1.271 9.519 3.673 13.561 1.053 1.771 2.193 3.351 3.389 4.695 5.392 6.065 6.837 14.096 6.896 14.435a1.61 1.61 0 0 1-1.582 1.89z" data-color="1" class="icon1ikesIpYeQ"/><path d="M170.019 118.22a1.607 1.607 0 0 1-1.602-1.612v-10.209a2.599 2.599 0 0 0-2.587-2.604h-2.587v9.156c0 .891-.717 1.612-1.602 1.612a1.607 1.607 0 0 1-1.602-1.612V100.57h5.792c3.193 0 5.792 2.614 5.792 5.829v10.209a1.609 1.609 0 0 1-1.604 1.612z" data-color="1" class="icon1ikesIpYeQ"/><path d="M178.398 119.947a1.607 1.607 0 0 1-1.602-1.612v-6.552a2.598 2.598 0 0 0-2.586-2.603h-4.19a1.607 1.607 0 0 1-1.602-1.612c0-.891.717-1.612 1.602-1.612h4.19c3.193 0 5.791 2.614 5.791 5.828v6.552a1.608 1.608 0 0 1-1.603 1.611z" data-color="1" class="icon1ikesIpYeQ"/><path d="M177.17 166.5h-35.692v-16.2h35.692v16.2zm-32.487-3.225h29.282v-9.751h-29.282v9.751z" data-color="1" class="icon1ikesIpYeQ"/><path d="M168.346 160.673a2.27 2.27 0 0 1-2.26-2.274c0-1.253 1.014-2.273 2.26-2.273s2.258 1.02 2.258 2.273a2.268 2.268 0 0 1-2.258 2.274zm0-3.224c-.522 0-.946.426-.946.951s.424.952.946.952c.521 0 .945-.427.945-.952s-.425-.951-.945-.951z" data-color="1" class="icon1ikesIpYeQ"/><path d="M170.019 97.078a1.607 1.607 0 0 1-1.602-1.612V62.56H31.584v32.906c0 .891-.717 1.612-1.602 1.612a1.607 1.607 0 0 1-1.602-1.612V59.335h143.242v36.131c0 .89-.718 1.612-1.603 1.612z" data-color="1" class="icon1ikesIpYeQ"/><path d="M134.109 141.601H65.637c-.885 0-1.602-.722-1.602-1.612s.717-1.612 1.602-1.612h68.471c.885 0 1.602.722 1.602 1.612s-.716 1.612-1.601 1.612z" data-color="1" class="icon1ikesIpYeQ"/><path d="M46.74 111.414a1.607 1.607 0 0 1-1.602-1.612v-9.156H42.55a2.598 2.598 0 0 0-2.587 2.604c0 .891-.717 1.612-1.602 1.612s-1.602-.722-1.602-1.612c0-3.214 2.599-5.829 5.792-5.829h5.792v12.381a1.609 1.609 0 0 1-1.603 1.612z" data-color="1" class="icon1ikesIpYeQ"/><path d="M44.748 147.858H25.433l-.254-1.302c-.004-.018-.372-1.882-1.115-4.211-2.465-7.699-3.822-15.764-4.035-23.969a1.608 1.608 0 0 1 1.561-1.654l.043-.001c.865 0 1.577.695 1.601 1.57a82.684 82.684 0 0 0 3.879 23.065c.416 1.298.72 2.452.919 3.276h16.717c.885 0 1.602.722 1.602 1.612s-.718 1.614-1.603 1.614z" data-color="1" class="icon1ikesIpYeQ"/><path d="M53.631 147.857a1.612 1.612 0 0 1-1.58-1.889c.059-.339 1.503-8.371 6.895-14.436 1.195-1.345 2.336-2.924 3.387-4.695 2.405-4.044 3.675-8.733 3.675-13.561 0-1.867-1.51-3.385-3.365-3.385a3.385 3.385 0 0 0-3.141 2.172l-5.987 15.672v-39.9a2.598 2.598 0 0 0-2.587-2.603 2.598 2.598 0 0 0-2.586 2.603v11.2c0 .891-.717 1.612-1.602 1.612s-1.602-.722-1.602-1.612v-11.2c0-3.213 2.598-5.828 5.791-5.828s5.792 2.614 5.792 5.828v22.585c1.084-2.265 3.401-3.753 5.924-3.753 3.623 0 6.569 2.965 6.569 6.61 0 5.411-1.428 10.673-4.13 15.216-1.157 1.947-2.418 3.693-3.749 5.191-4.767 5.361-6.114 12.768-6.126 12.842a1.607 1.607 0 0 1-1.578 1.331z" data-color="1" class="icon1ikesIpYeQ"/><path d="M29.982 118.22a1.607 1.607 0 0 1-1.602-1.612v-10.209c0-3.214 2.598-5.829 5.791-5.829h5.792v12.381c0 .891-.717 1.612-1.602 1.612s-1.602-.722-1.602-1.612v-9.156H34.17a2.598 2.598 0 0 0-2.586 2.604v10.209c0 .891-.717 1.612-1.602 1.612z" data-color="1" class="icon1ikesIpYeQ"/><path d="M21.602 119.947A1.607 1.607 0 0 1 20 118.335v-6.552c0-3.213 2.599-5.828 5.792-5.828h4.19c.885 0 1.602.722 1.602 1.612 0 .891-.717 1.612-1.602 1.612h-4.19a2.598 2.598 0 0 0-2.587 2.603v6.552c0 .892-.718 1.613-1.603 1.613z" data-color="1" class="icon1ikesIpYeQ"/><path d="M58.523 166.5H22.832v-16.2h35.692v16.2zm-32.487-3.225h29.282v-9.751H26.036v9.751z" data-color="1" class="icon1ikesIpYeQ"/><path d="M31.656 160.673a2.27 2.27 0 0 1-2.26-2.274c0-1.253 1.014-2.273 2.26-2.273s2.258 1.02 2.258 2.273a2.268 2.268 0 0 1-2.258 2.274zm0-3.224c-.522 0-.946.426-.946.951s.424.952.946.952c.521 0 .945-.427.945-.952s-.425-.951-.945-.951z" data-color="1" class="icon1ikesIpYeQ"/><path d="M100.002 62.56a1.607 1.607 0 0 1-1.602-1.612v-4.306a2.689 2.689 0 0 0-2.678-2.693H72.311c-3.242 0-5.881-2.655-5.881-5.918 0-3.263 2.639-5.918 5.881-5.918h55.334c1.476 0 2.676-1.209 2.676-2.694s-1.2-2.693-2.676-2.693H99.977a1.607 1.607 0 0 1-1.602-1.612c0-.891.717-1.612 1.602-1.612h27.667c3.242 0 5.881 2.655 5.881 5.918 0 3.264-2.639 5.919-5.881 5.919H72.311c-1.476 0-2.676 1.208-2.676 2.693s1.2 2.693 2.676 2.693h23.411c3.243 0 5.882 2.655 5.882 5.918v4.306c0 .889-.717 1.611-1.602 1.611z" data-color="1" class="icon1ikesIpYeQ"/></g></g> </svg> </g></svg>